<svg width="111" height="57" viewBox="0 0 111 57" fill="none" xmlns="http://www.w3.org/2000/svg">
<path d="M4.75293 37.4587C4.76216 37.4338 6.39878 33.3676 8.39354 28.4126L12.0194 19.4218H17.2468L25.2628 37.4753C25.2637 37.4864 24.1735 37.492 22.8388 37.4883L20.4129 37.4818L18.9434 33.928H14.8985L10.8415 33.9603L9.50677 37.4938H4.73816L4.75293 37.4587ZM17.5855 30.7203C17.5486 30.5818 14.7055 23.776 14.6899 23.7916C14.6742 23.8073 12.0526 30.7406 12.0526 30.7655C12.0526 30.7701 13.3006 30.7747 14.8265 30.7747H17.6003L17.5855 30.7203ZM27.3674 28.4615V19.419H31.2794L34.1779 22.767L37.0911 26.115C37.1003 26.115 38.4092 24.6086 40.0034 22.767L42.9019 19.419H46.8231V37.5049H42.3342V31.8723L42.312 26.248C42.3 26.2526 41.2015 27.5236 39.8714 29.0726L37.4529 31.888H36.7514L34.3292 29.067L31.8692 26.2461C31.86 26.2452 31.8508 28.779 31.8508 31.8769V37.5076H27.3619L27.3674 28.4615ZM50.256 28.468L50.2625 19.4218L54.1394 19.4144C58.2231 19.4052 59.0686 19.4209 59.8625 19.5132C62.6086 19.827 64.8415 20.9532 66.2935 22.7578C67.3403 24.0501 67.9274 25.5141 68.1535 27.3621C68.2089 27.819 68.2182 29.0541 68.1674 29.5424C68.0317 30.879 67.692 32.0393 67.1409 33.0436C65.7775 35.5313 63.1994 37.0129 59.5939 37.4033C58.8212 37.4956 58.3135 37.4938 54.2899 37.4938H50.2283L50.2348 28.4476L50.256 28.468ZM58.3828 34.168C59.7416 34.0627 60.8492 33.6603 61.7059 32.9615C62.0074 32.7012 62.2812 32.4105 62.5228 32.0938C63.0582 31.3553 63.3979 30.4341 63.5437 29.3476C63.5871 29.02 63.5871 27.8707 63.5428 27.5523C63.3859 26.4206 63.0591 25.54 62.532 24.8246C62.272 24.4927 61.9771 24.1898 61.6523 23.9209C60.8465 23.2886 59.7997 22.9083 58.5139 22.7809C58.3615 22.7661 57.5059 22.755 56.5062 22.755H54.7643V34.1846H56.4009L58.3828 34.1569V34.168Z" fill="#96ACAF"/>
<path d="M72.3922 38.7381V32.0846L81.8787 22.5907V35.8969H95.1848L85.6901 45.3907H72.3922V38.7381ZM101.639 40.5077L97.0384 35.9163V20.7778H81.8999L72.6544 11.5323H106.242L106.246 28.1597L106.269 44.8738C106.274 44.9263 106.269 44.9792 106.254 45.0298C106.236 45.0806 105.036 43.9064 101.639 40.5077Z" fill="#96ACAF"/>
</svg>
