<svg width="112" height="56" viewBox="0 0 112 56" fill="none" xmlns="http://www.w3.org/2000/svg">
<path d="M25.0692 21.877C25.5308 22.5231 25.7154 23.2616 25.7154 24.0923C25.7154 24.8308 25.5308 25.5693 25.0692 26.1231C24.7923 26.4923 24.4231 26.7693 24.0539 26.9539C24.7 27.2308 25.3462 27.6 25.7154 28.2462C26.5462 29.6308 26.4539 31.2923 25.6231 32.5847C25.3462 33.0462 24.9769 33.4154 24.6077 33.6923C24.1462 34.0616 23.5923 34.3385 22.9462 34.4308C22.3 34.6154 21.5616 34.6154 20.9154 34.6154H14.4539V20.4H21.2846C22.7615 20.2154 24.1462 20.7693 25.0692 21.877ZM17.4077 22.8923V26.0308H20.9154C21.4692 26.0308 21.9308 25.9385 22.3923 25.6616C22.7615 25.3847 23.0385 24.9231 22.9462 24.3693C23.0385 23.8154 22.6692 23.2616 22.2077 23.077C21.6539 22.8923 21.1 22.8923 20.5462 22.8923H17.4077ZM17.4077 28.3385V32.1231H20.8231C21.2846 32.1231 21.8385 32.0308 22.3 31.8462C22.9462 31.477 23.3154 30.8308 23.2231 30.0923C23.3154 29.4462 22.9462 28.8 22.3 28.6154C21.8385 28.4308 21.3769 28.3385 20.9154 28.3385H17.4077Z" fill="#96ACAF"/>
<path d="M32.6385 28.2462C33.0077 28.2462 33.377 28.1539 33.7462 27.9693C34.1154 27.877 34.3923 27.6 34.3923 27.2308C34.3923 26.8616 34.2077 26.4923 33.9308 26.3077C33.4693 26.1231 33.1 26.0308 32.6385 26.0308C32.0847 25.9385 31.6231 26.1231 31.2539 26.4923C31.0693 26.7693 30.8847 27.1385 30.8847 27.4154H28.2077C28.2077 26.5847 28.4847 25.8462 28.9462 25.1077C29.8693 24.0923 31.3462 23.5385 32.7308 23.6308C33.8385 23.6308 34.8539 23.8154 35.8693 24.3693C36.7923 24.8308 37.3462 25.8462 37.2539 26.9539V33.0462C37.2539 33.3231 37.2539 33.6 37.4385 33.7847C37.5308 33.9693 37.7154 34.0616 37.8077 34.0616V34.4308H34.7616C34.6693 34.2462 34.577 34.0616 34.577 33.7847C34.4847 33.6 34.4847 33.4154 34.4847 33.1385C34.1154 33.5077 33.6539 33.877 33.1923 34.1539C32.5462 34.5231 31.8077 34.7077 31.1616 34.7077C30.3308 34.7077 29.4077 34.4308 28.7616 33.877C28.1154 33.3231 27.7462 32.4 27.8385 31.5693C27.8385 30.4616 28.3923 29.3539 29.4077 28.8C30.1462 28.4308 30.977 28.2462 31.8077 28.1539L32.6385 28.2462ZM34.3923 29.4462C34.2077 29.5385 34.0231 29.6308 33.8385 29.7231C33.5616 29.8154 33.377 29.9077 33.1 29.9077L32.5462 30C32.0847 30.0923 31.7154 30.1847 31.2539 30.3693C30.8847 30.5539 30.7 31.0154 30.6077 31.3847C30.5154 31.8462 30.7 32.2154 30.977 32.4923C31.2539 32.677 31.6231 32.7693 31.9 32.7693C32.4539 32.7693 33.1 32.5847 33.5616 32.2154C34.1154 31.7539 34.3923 31.0154 34.3923 30.277V29.4462Z" fill="#96ACAF"/>
<path d="M45.8384 27.8769C45.7461 27.5077 45.6538 27.1385 45.4692 26.8615C45.0999 26.4 44.5461 26.2154 43.9923 26.2154C43.1615 26.2154 42.3307 26.7692 42.0538 27.6C41.8692 28.2462 41.7769 28.8923 41.7769 29.5385C41.7769 30.1846 41.8692 30.8308 42.0538 31.3846C42.3307 32.2154 43.0692 32.7692 43.8999 32.6769C44.4538 32.7692 44.9153 32.5846 45.2846 32.1231C45.5615 31.7539 45.7461 31.2923 45.8384 30.7385H48.6999C48.6076 31.5692 48.3307 32.4 47.7769 33.1385C46.8538 34.3385 45.4692 35.0769 43.8999 34.9846C42.5153 35.0769 41.1307 34.5231 40.1153 33.5077C39.2846 32.4 38.823 31.0154 38.9153 29.6308C38.823 28.1539 39.2846 26.6769 40.2076 25.4769C41.1307 24.4615 42.423 23.9077 43.8076 24C44.9153 23.9077 46.023 24.2769 47.0384 24.8308C47.9615 25.5692 48.5153 26.7692 48.5153 27.9692L45.8384 27.8769Z" fill="#96ACAF"/>
<path d="M50.5461 20.4H53.2231V28.1539L56.7308 24.0923H60.1461L56.3615 28.0616L60.3308 34.6154H57.0077L54.4231 30.0923L53.2231 31.2923V34.6154H50.5461V20.4Z" fill="#96ACAF"/>
<path d="M61.7153 34.6154V20.4H64.6692V25.7539H70.2076V20.4H73.2538V34.6154H70.2076V28.2462H64.6692V34.6154H61.7153Z" fill="#96ACAF"/>
<path d="M78.5153 24.0923V30.4615C78.5153 30.9231 78.5153 31.3846 78.7 31.8462C78.9769 32.4 79.5307 32.6769 80.1769 32.6769C81.0077 32.7692 81.7461 32.3077 82.1153 31.4769C82.3 30.9231 82.3923 30.3692 82.3923 29.8154V24.0923H85.1615V34.6154H82.4846V33.1385C82.3923 33.2308 82.3 33.3231 82.3 33.4154C82.2077 33.6 82.1153 33.6923 81.9307 33.7846C81.5615 34.1539 81.1 34.4308 80.6384 34.6154C80.1769 34.8 79.7153 34.8 79.2538 34.8C77.9615 34.9846 76.7615 34.2462 76.1153 33.1385C75.7461 32.3077 75.6538 31.3846 75.6538 30.4615V24.0923H78.5153Z" fill="#96ACAF"/>
<path d="M96.8846 25.2923C97.7154 26.4 98.0846 27.7846 98.0846 29.1693C98.0846 30.6462 97.7154 32.0308 96.8846 33.2308C96.1462 34.3385 94.9462 34.8923 93.6539 34.8923C92.9154 34.8923 92.1769 34.7077 91.6231 34.3385C91.2539 34.0616 90.8846 33.6923 90.6077 33.3231V34.6154H87.9308V20.4H90.7V25.4769C90.9769 25.0154 91.4385 24.6462 91.9 24.3693C92.4539 24 93.1923 23.8154 93.8385 23.8154C94.9462 23.8154 96.0539 24.3693 96.8846 25.2923ZM94.5769 31.7539C95.0385 31.1077 95.2231 30.2769 95.2231 29.4462C95.2231 28.8 95.1308 28.1539 94.9462 27.6C94.6692 26.6769 93.8385 26.1231 92.9154 26.2154C91.9923 26.1231 91.1616 26.6769 90.8846 27.6C90.7 28.1539 90.5154 28.8 90.6077 29.4462C90.6077 30.2769 90.7923 31.0154 91.2539 31.6616C91.6231 32.2154 92.3616 32.5846 93.1 32.5846C93.5616 32.6769 94.2077 32.3077 94.5769 31.7539Z" fill="#96ACAF"/>
</svg>
