<svg width="112" height="56" viewBox="0 0 112 56" fill="none" xmlns="http://www.w3.org/2000/svg">
<path d="M23.1484 30.7945C22.1007 33.2983 19.4193 34.8911 16.738 34.8911C12.7755 34.8911 9.57825 31.5776 9.57825 27.6435C9.57825 23.7369 12.8119 20.4891 16.6634 20.4891C19.43 20.4891 22.1682 22.1006 23.2336 24.6976H20.3063C19.861 24.1675 19.3065 23.7398 18.6807 23.4436C18.0549 23.1474 17.3726 22.9897 16.6803 22.9813C14.157 22.9813 12.138 25.1628 12.138 27.7367C12.138 30.1784 14.2316 32.398 16.6989 32.398C18.0636 32.398 19.2409 31.7827 20.1758 30.7945H23.1484ZM34.7173 24.2208H32.4443V25.6858C32.0574 25.1234 31.5375 24.6654 30.931 24.3522C30.3245 24.039 29.65 23.8804 28.9675 23.8905C27.4536 23.8905 26.1636 24.4658 25.1141 25.6858C24.1588 26.7716 23.7823 27.9614 23.7823 29.3944C23.7823 30.8274 24.2511 32.1663 25.0751 33.1589C25.9745 34.2297 27.2841 34.8991 28.8911 34.8991C30.1998 34.8991 31.6577 34.2306 32.4426 33.1589V34.5671H34.7155L34.7173 24.2208ZM32.3706 29.3748C32.3706 31.1506 31.1276 32.4824 29.3519 32.4646C27.6694 32.4824 26.2861 31.1808 26.2861 29.4885C26.2861 27.6834 27.5575 26.3064 29.3892 26.325C31.1472 26.3073 32.3795 27.6462 32.3795 29.3757M36.5756 34.5662H38.8618V33.158C39.6849 34.3788 40.9572 34.8982 42.3778 34.8982C43.8161 34.8982 45.2571 34.2767 46.1761 33.158C47.0018 32.184 47.5256 30.64 47.5079 29.3935C47.5079 26.4919 45.3326 23.894 42.305 23.894C41.1277 23.894 39.8012 24.3051 39.0714 25.3146V20.7439H36.5853L36.5756 34.5662ZM42.0404 26.325C43.8161 26.325 45.013 27.7012 45.013 29.413C45.013 31.1426 43.7966 32.4637 42.0404 32.4637C40.1705 32.4637 38.9178 31.0698 38.9178 29.2647C38.9178 27.5538 40.3765 26.3348 42.0404 26.3348M48.9125 20.7439H51.4056V34.568H48.9125V20.7439ZM63.6155 30.4802C63.6715 30.0878 63.746 29.6954 63.746 29.3029C63.746 26.4351 61.4021 23.8869 58.4428 23.8869C55.3335 23.8869 52.9425 26.4085 52.9425 29.445C52.9425 32.4637 55.3886 34.8849 58.4046 34.8849C60.5977 34.8849 62.741 33.4084 63.3731 31.5572H60.6341C60.1457 32.0899 59.2472 32.4451 58.3105 32.4451C57.0551 32.4451 55.9488 31.6593 55.5759 30.4634L63.6155 30.4802ZM55.5386 28.2748C55.9133 27.0975 57.1874 26.325 58.4242 26.325C59.6983 26.325 60.8409 27.0602 61.2529 28.2748H55.5386ZM65.037 20.7439H66.4265V33.3072H72.1408V34.5662H65.0379L65.037 20.7439ZM82.3379 24.3469H81.0115V26.3002C80.2452 24.8405 78.6213 24.1267 77.0161 24.1267C75.5973 24.1267 74.1598 24.6354 72.6078 26.3002C72.2323 26.6375 71.5379 28.0404 71.5379 29.4077C71.5379 30.9615 72.1772 32.2524 72.5519 32.6644C73.8615 34.1524 75.5227 34.7953 77.0534 34.7953C78.6515 34.7953 80.2275 34.0876 81.0133 32.6644V34.5777H82.3379V24.3469ZM77.0143 25.4496C79.2926 25.4496 81.0097 27.2653 81.0097 29.5302C81.0097 31.6646 79.1807 33.499 77.0498 33.499C74.8657 33.499 72.923 31.7588 72.923 29.5036C72.923 27.2395 74.7716 25.4416 77.0125 25.4416M83.9361 34.5697H85.2501V32.8251C86.0546 34.1453 87.8498 34.7961 89.3272 34.7961C90.8233 34.7961 92.0947 34.4215 93.5162 32.8251C94.08 32.2071 94.737 30.8966 94.737 29.4183C94.737 26.3854 92.1693 24.1222 89.1967 24.1222C87.6829 24.1222 86.0004 24.8325 85.3256 26.2549V20.7439H83.9361V34.5697ZM89.2331 25.4487C91.5149 25.4487 93.3466 27.1339 93.3466 29.4556C93.3466 31.6753 91.5513 33.499 89.3263 33.499C87.0818 33.499 85.2306 31.8333 85.2306 29.5497C85.2306 28.4257 85.5112 27.4899 86.3156 26.6855C87.0818 25.8988 88.1295 25.4496 89.2322 25.4496M96.8696 31.5466C96.861 31.7946 96.9021 32.0419 96.9907 32.2737C97.0793 32.5056 97.2135 32.7173 97.3854 32.8963C97.5572 33.0754 97.7633 33.2182 97.9913 33.3162C98.2193 33.4142 98.4647 33.4655 98.7129 33.467C99.6895 33.467 100.489 32.7771 100.489 31.7801C100.489 30.5495 99.5226 30.0931 98.5193 29.8214C97.8685 29.6172 97.1804 29.4112 96.6743 28.9265C96.1301 28.4417 95.8486 27.7145 95.8486 26.9874C95.8486 25.3271 97.1999 24.1302 98.7981 24.1302C100.322 24.1302 101.615 25.4016 101.615 26.8932H100.237C100.237 25.9983 99.5501 25.4576 98.6569 25.4576C98.2806 25.4576 97.9197 25.6069 97.6534 25.8727C97.387 26.1385 97.237 26.4992 97.2363 26.8755C97.2363 27.9942 98.1286 28.2925 99.0121 28.5624C100.536 29.0472 101.869 29.6989 101.869 31.5457C101.869 33.4661 100.461 34.7935 98.5664 34.7935C96.835 34.7935 95.3727 33.2797 95.465 31.5457H96.8528" fill="#96ACAF"/>
</svg>
