<svg width="112" height="56" viewBox="0 0 112 56" fill="none" xmlns="http://www.w3.org/2000/svg">
<path d="M37.0693 19.2154C36.1462 18.2923 35.1308 18.477 34.3923 18.8462C34.7616 18.1077 34.9462 17.0923 34.0231 16.1693C32.7308 15.0616 31.7154 15.8 30.977 16.1693C28.3923 17.3693 27.0077 17.4616 25.3462 17.4616C23.6847 17.4616 22.3 17.3693 19.7154 16.1693C18.977 15.8 17.8693 15.0616 16.6693 16.1693C15.7462 17.0923 15.9308 18.2 16.3 18.8462C15.5616 18.477 14.5462 18.2923 13.6231 19.2154C12.5154 20.5077 13.2539 21.6154 13.6231 22.3539C14.8231 24.9385 14.9154 26.4154 14.9154 28.077C14.9154 29.7385 14.8231 31.2154 13.6231 33.8C13.2539 34.5385 12.5154 35.6462 13.6231 36.9385C14.5462 37.8616 15.5616 37.677 16.3 37.3077C15.9308 38.0462 15.7462 39.0616 16.6693 39.9846C17.9616 41.0923 18.977 40.3539 19.7154 39.9846C22.3 38.7846 23.6847 38.6923 25.3462 38.6923C27.0077 38.6923 28.3923 38.7846 30.977 39.9846C31.7154 40.3539 32.8231 41.0923 34.0231 39.9846C34.9462 39.0616 34.7616 38.0462 34.3923 37.3077C35.1308 37.677 36.1462 37.8616 37.0693 36.9385C38.177 35.6462 37.4385 34.5385 37.0693 33.8C35.8693 31.2154 35.777 29.7385 35.777 28.077C35.777 26.4154 35.8693 24.9385 37.0693 22.3539C37.4385 21.6154 38.177 20.5077 37.0693 19.2154ZM28.0231 29.8308L33.1 35.8308L27.0077 30.8462C27.0077 30.8462 26.177 30.0154 25.2539 30.0154C24.3308 30.0154 23.5 30.8462 23.5 30.8462L17.5 35.9231L22.4847 29.9231C22.4847 29.9231 23.3154 29.0923 23.3154 28.1693C23.3154 27.2462 22.4847 26.4154 22.4847 26.4154L17.5 20.3231L23.5 25.4C23.5 25.4 24.3308 26.2308 25.2539 26.2308C26.177 26.2308 27.0077 25.4 27.0077 25.4L33.0077 20.3231L27.9308 26.4154C27.9308 26.4154 27.1 27.2462 27.1 28.1693C27.1923 29 28.0231 29.8308 28.0231 29.8308Z" fill="#96ACAF"/>
<path d="M77.2231 27.3385C77.5 27.1539 81.8385 25.4924 81.4692 21.6155C81.0077 16.6308 75.7461 17.0001 73.9 17.0001H64.3V17.1847C65.3154 17.277 65.7769 17.8308 65.7769 19.677L65.6846 36.6616C65.6846 38.3232 64.9461 38.7847 64.0231 38.9693V39.2462H76.7615C78.4231 39.2462 82.5769 38.6924 82.7615 33.8001C82.9461 32.6001 82.5769 28.6308 77.2231 27.3385ZM75.4692 38.2308C74.2692 38.5078 72.5154 38.4155 71.1308 38.4155C69.8385 38.3232 69.8385 37.7693 69.8385 37.2155C69.8385 37.2155 69.8385 34.9078 69.9308 31.9539C70.0231 26.5078 70.2077 18.7539 70.2077 18.6616C70.2077 17.9232 70.3923 17.8308 71.0385 17.8308C71.5 17.8308 71.6846 17.8308 72.6077 17.8308C73.8077 17.8308 77.0385 17.9232 77.2231 22.3539C77.4077 26.7847 72.7923 27.3385 71.5923 27.4308C71.5 27.4308 71.5 27.6155 71.5923 27.6155C75.1923 27.8001 78.7 29.0924 78.5154 33.8924C78.5154 37.1232 76.6692 37.9539 75.4692 38.2308Z" fill="#96ACAF"/>
<path d="M93.0078 25.8616C89.8694 25.1231 87.7463 24.477 87.7463 21.8001C87.7463 19.7693 89.3155 17.5539 93.0078 17.7385C96.054 17.9231 97.6232 19.4001 97.9924 21.0616H98.2694L98.177 17.0924H97.9924C97.9001 17.1847 97.8078 17.277 97.6232 17.3693C97.1617 17.5539 96.6078 17.3693 96.6078 17.3693C94.2078 16.7231 91.254 16.8154 91.254 16.8154C87.9309 16.9077 84.2386 18.0154 83.6847 22.4462C83.3155 25.5847 85.7155 27.3385 85.7155 27.3385C87.7463 29.0924 91.9001 29.6462 93.4694 30.2924C95.4078 31.2154 95.5001 33.1539 95.4078 34.077C95.1309 37.3078 92.7309 38.5077 89.8694 38.5077C86.9155 38.5077 85.6232 37.2154 85.0694 36.7539C84.2386 36.1078 84.2386 35.277 84.1463 34.8154H83.8694V39.0616H84.1463C84.3309 38.6001 84.5155 38.4154 85.0694 38.6001C88.1155 39.4308 90.3309 39.5231 90.3309 39.5231C95.5924 39.7078 99.377 37.5847 99.654 33.2462C100.023 26.9693 94.4847 26.2308 93.0078 25.8616Z" fill="#96ACAF"/>
<path d="M53.2232 17.0001C52.2078 17.0001 42.8847 17.0001 42.8847 17.0001V17.277C43.6232 17.3693 44.2693 17.9231 44.2693 18.6616C44.4539 21.1539 44.5462 36.3847 44.177 38.0462C44.0847 38.5077 43.3462 38.877 42.7001 38.9693V39.2462H54.2385C58.7616 39.2462 63.7462 35.0001 63.7462 28.077C63.9308 20.1385 57.8385 16.9078 53.2232 17.0001ZM55.3462 37.7693C53.6847 38.3231 51.9308 38.5077 49.8078 38.3231C48.6078 38.2308 48.6078 37.4924 48.6078 37.2154C48.5155 35.0924 48.5155 20.6001 48.6078 18.7539C48.7001 17.7385 48.8847 17.8308 49.8078 17.8308C50.6385 17.8308 51.6539 17.9231 51.6539 17.9231C57.1001 18.2924 59.1308 22.5385 59.5001 27.9847C59.9616 33.4308 57.377 37.0308 55.3462 37.7693Z" fill="#96ACAF"/>
</svg>
