<svg width="112" height="56" viewBox="0 0 112 56" fill="none" xmlns="http://www.w3.org/2000/svg">
<path d="M12.1616 34.5385C14.1924 34.5385 16.2232 33.6154 17.4232 32.0462L19.0847 33.2462C17.6078 35.0923 15.4847 36.2 13.177 36.4769C10.8693 36.7539 8.46932 36.1077 6.62317 34.6308L7.91548 33.0616C9.20778 33.9846 10.5924 34.5385 12.1616 34.5385ZM12.1616 21.6154C10.6847 21.6154 9.20778 22.0769 8.00778 23L6.71548 21.4308C8.28471 20.2308 10.2232 19.5846 12.1616 19.5846C14.8386 19.5846 17.4232 20.7846 19.0847 22.9077L17.4232 24.1077C16.1309 22.5385 14.1924 21.6154 12.1616 21.6154ZM18.0693 25.0308L17.5155 26.9692H10.5001L11.0539 25.0308H18.0693ZM9.48471 31.1231L10.0386 29.1846H17.1462L16.5924 31.1231H9.48471Z" fill="#96ACAF"/>
<path d="M23.7924 34.4462C21.3924 34.4462 19.177 33.1539 17.977 31.0308H24.9001L25.454 29.0923H17.3309C17.1463 28.3539 17.1463 27.6154 17.3309 26.877H25.9155L26.4693 24.9385H17.977C19.0847 22.8154 21.3924 21.5231 23.7924 21.5231C25.2693 21.5231 26.7463 21.9846 27.9463 22.9077L29.2386 21.3385C25.7309 18.5693 20.5616 18.9385 17.4232 22.1693C14.2847 25.4 14.2847 30.477 17.4232 33.7077C20.5616 36.9385 25.6386 37.3077 29.2386 34.5385L27.9463 32.9693C26.7463 33.9846 25.2693 34.4462 23.7924 34.4462Z" fill="#96ACAF"/>
<path d="M34.8694 33.3385V22.4462H42.254V23.7385H36.4386V27.1539H42.254V28.4462H36.4386V31.8616H42.254V33.1539H34.8694V33.3385ZM71.6078 33.3385V22.4462H78.9925V23.7385H73.1771V27.1539H78.9925V28.4462H73.1771V31.8616H78.9925V33.1539H71.6078V33.3385ZM66.254 30.4769L68.4694 25.0308H70.1309C69.6694 26.1385 68.0078 30.3846 67.3617 31.8616C66.254 34.4462 64.9617 35.8308 63.5771 35.9231V34.5385C64.4078 34.2616 65.3309 33.1539 65.3309 32.1385L62.5617 25.0308H64.3155L66.254 30.4769ZM86.7463 30.2C86.7463 30.2 86.7463 26.6923 86.7463 25.0308H88.3155V33.3385H86.7463V32.4154L86.4694 32.6923C86.3771 32.8769 85.6386 33.5231 84.1617 33.5231C81.7617 33.5231 80.5617 32.3231 80.5617 29.8308V25.1231H82.1309V30.2C82.1309 31.4923 82.9617 32.2308 84.4386 32.2308C85.5463 32.2308 86.7463 31.3077 86.7463 30.2ZM92.5617 25.7692C93.0232 25.0308 93.7617 24.9385 94.6848 24.9385C95.054 24.9385 95.4232 24.9385 95.7002 25.0308L95.2386 26.5077C94.8694 26.4154 94.5001 26.4154 94.1309 26.3231C92.8386 26.3231 92.1002 27.2462 92.1002 28.8154V33.5231H90.5309V25.2154H92.1002V26.4154L92.5617 25.7692ZM50.8386 26.1385V25.0308H52.4078V33.3385H50.8386V32.1385C50.8386 32.1385 50.2848 33.5231 47.8848 33.5231C45.4848 33.5231 43.6386 31.6769 43.6386 29.1846C43.6386 26.6923 45.4848 24.8462 47.8848 24.8462C49.0848 24.8462 50.1002 25.3077 50.8386 26.1385ZM48.0694 32.2308C49.7309 32.2308 50.9309 30.9385 50.9309 29.2769C50.9309 27.5231 49.7309 26.3231 48.0694 26.3231C46.4078 26.3231 45.2078 27.6154 45.2078 29.2769C45.2078 30.0154 45.4848 30.8462 45.9463 31.4C46.5925 31.8616 47.3309 32.1385 48.0694 32.2308ZM58.5002 28.4462C60.4386 28.7231 61.3617 29.5539 61.3617 30.9385C61.3617 32.5077 59.8848 33.5231 57.4848 33.5231C56.2848 33.5231 54.9925 33.2462 53.9771 32.6L54.7155 31.4923C55.5463 32.0462 56.5617 32.3231 57.5771 32.3231C58.9617 32.3231 59.7925 31.8616 59.7925 31.0308C59.7925 30.2923 58.8694 30.1077 58.0386 29.9231L57.1155 29.8308C55.1771 29.5539 54.254 28.7231 54.254 27.5231C54.254 25.9539 55.6386 24.9385 57.7617 24.9385C58.9617 24.8462 60.0694 25.1231 61.0848 25.6769L60.4386 26.8769C59.6078 26.5077 58.6848 26.2308 57.7617 26.2308C56.654 26.2308 55.9155 26.6923 55.9155 27.4308C55.9155 28.2616 57.0232 28.3539 57.5771 28.4462H58.5002ZM100.408 24.8462C102.808 24.8462 104.839 26.7846 104.839 29.1846C104.839 31.5846 102.9 33.5231 100.408 33.5231C98.0078 33.5231 95.9771 31.5846 95.9771 29.1846C95.9771 26.7846 97.9155 24.8462 100.408 24.8462ZM100.408 32.2308C102.069 32.2308 103.454 30.8462 103.454 29.2769C103.454 27.6154 102.069 26.3231 100.408 26.3231C98.7463 26.3231 97.3617 27.7077 97.3617 29.2769C97.3617 30.8462 98.7463 32.2308 100.408 32.2308Z" fill="#96ACAF"/>
</svg>
